<svg width="279" height="209" viewBox="0 0 279 209" fill="none" xmlns="http://www.w3.org/2000/svg">
<g clip-path="url(#clip0)">
<path d="M15.7688 48.331L8.54678 55.553L15.2846 62.2908L22.5066 55.0688L15.7688 48.331Z" fill="#E1E6FB"/>
<path d="M23.713 56.9298L16.491 64.1518L23.2289 70.8896L30.4509 63.6676L23.713 56.9298Z" fill="#E1E6FB"/>
<path d="M25.4264 39.8107L18.2044 47.0327L24.9423 53.7705L32.1643 46.5485L25.4264 39.8107Z" fill="#E1E6FB"/>
<path d="M253.701 163.022L246.479 170.244L253.216 176.982L260.438 169.76L253.701 163.022Z" fill="#E1E6FB"/>
<path d="M261.649 171.619L254.427 178.841L261.165 185.579L268.387 178.357L261.649 171.619Z" fill="#E1E6FB"/>
<path d="M253.089 180.178L245.867 187.4L252.605 194.138L259.827 186.916L253.089 180.178Z" fill="#E1E6FB"/>
<path d="M140.826 15.52H71.2142V51.4672H140.826V15.52Z" fill="#E1E6FB"/>
<path d="M55.8083 150.179H29.5612V208.379H55.8083V150.179Z" fill="#E1E6FB"/>
<path d="M42.1141 155.315C42.1141 155.315 19.2905 118.226 18.1493 108.526C17.0082 98.8262 15.867 95.4026 15.867 95.4026C15.867 95.4026 22.7141 94.2614 24.9964 99.3967C27.2788 104.532 34.1259 98.2556 36.4082 111.95C36.4082 111.95 36.9788 118.797 42.1141 116.514C47.2494 114.232 42.1141 155.315 42.1141 155.315Z" fill="#E1E6FB"/>
<path d="M44.9671 161.02C44.9671 161.02 28.6482 130.779 23.2847 118.797C19.2905 109.896 15.867 95.4026 15.867 95.4026C15.867 95.4026 8.96285 97.9132 9.5905 103.391C10.1611 108.526 5.02578 110.238 6.16696 116.514C7.42226 123.304 17.2364 124.56 11.3023 130.779C7.70755 134.545 10.3893 140.936 13.014 145.044C14.6687 147.669 22.9423 150.065 21.0023 149.038C16.5517 146.756 44.9671 161.02 44.9671 161.02Z" fill="#BAC5F4"/>
<path d="M34.6306 135.7C35.2031 135.437 32.8896 129.189 29.4631 121.746C26.0367 114.304 22.7948 108.484 22.2223 108.747C21.6498 109.011 23.9634 115.258 27.3898 122.701C30.8163 130.144 34.0581 135.964 34.6306 135.7Z" fill="#BAC5F4"/>
<path d="M49.8741 179.565C49.8741 179.565 15.1252 153.317 10.5605 144.702C5.99579 136.086 3.65637 133.29 3.65637 133.29C3.65637 133.29 9.64757 129.752 13.6417 133.689C17.6358 137.626 21.7441 129.296 28.8194 141.221C28.8194 141.221 29.6182 149.609 34.7535 147.897C40.0029 146.128 49.8741 179.565 49.8741 179.565Z" fill="#E1E6FB"/>
<path d="M54.61 183.844C54.61 183.844 28.42 161.591 19.0623 152.405C12.1011 145.557 3.65637 133.29 3.65637 133.29C3.65637 133.29 -1.82129 138.14 0.689304 142.99C3.08578 147.555 -1.07952 151.035 2.28696 156.456C5.88167 162.333 15.5246 159.936 12.2723 167.868C10.2752 172.66 15.1252 177.682 19.0623 180.535C21.5729 182.361 30.1317 181.562 27.9635 181.333C22.9423 180.877 54.61 183.844 54.61 183.844Z" fill="#F8F8FF"/>
<path d="M32.308 170.919C32.7455 170.465 28.3192 165.487 22.4217 159.799C16.5241 154.111 11.3885 149.868 10.951 150.322C10.5135 150.775 14.9397 155.754 20.8373 161.442C26.7348 167.129 31.8704 171.373 32.308 170.919Z" fill="#E1E6FB"/>
<path d="M230.979 109.724C230.979 109.724 258.082 65.6178 259.851 53.8637C261.62 42.1095 263.047 38.0013 263.047 38.0013C263.047 38.0013 255.515 36.2895 252.719 42.4519C249.923 48.6143 242.676 40.6831 239.481 57.2302C239.481 57.2302 238.511 65.5608 232.919 62.5366C227.328 59.5125 230.979 109.724 230.979 109.724Z" fill="#E1E6FB"/>
<path d="M227.556 116.514C227.556 116.514 247.127 80.4532 253.689 66.1314C258.539 55.5184 263.047 38.0013 263.047 38.0013C263.047 38.0013 270.578 41.3678 269.608 47.9866C268.695 54.206 274.344 56.5455 272.747 64.1343C271.035 72.3508 260.079 73.4349 266.356 81.252C270.122 85.9879 266.869 93.6908 263.731 98.5409C261.734 101.622 252.491 104.19 254.659 103.049C259.68 100.481 227.556 116.514 227.556 116.514Z" fill="#BAC5F4"/>
<path d="M246.671 69.4408C242.505 78.342 239.652 85.8167 240.28 86.1591C240.908 86.5014 244.788 79.5973 248.953 70.6961C253.118 61.7949 255.971 54.3202 255.344 53.9207C254.716 53.5213 250.836 60.5396 246.671 69.4408Z" fill="#BAC5F4"/>
<path d="M221.165 138.882C221.165 138.882 260.992 108.526 266.47 98.1985C271.948 87.8708 274.687 84.6185 274.687 84.6185C274.687 84.6185 268.239 80.0537 263.617 84.6755C258.995 89.2973 254.887 78.9696 246.385 93.1773C246.385 93.1773 245.13 103.334 239.481 100.994C233.718 98.655 221.165 138.882 221.165 138.882Z" fill="#F8F8FF"/>
<path d="M215.745 143.903C215.745 143.903 245.872 117.998 256.713 107.214C264.758 99.2256 274.744 84.6755 274.744 84.6755C274.744 84.6755 280.564 90.8379 277.539 96.6579C274.629 102.136 279.08 106.529 275.143 112.977C270.864 119.938 260.308 116.629 263.56 126.443C265.5 132.377 259.908 138.254 255.401 141.563C252.548 143.675 243.076 142.305 245.529 142.134C250.95 141.677 215.745 143.903 215.745 143.903Z" fill="#E1E6FB"/>
<path d="M255.743 113.776C249.238 120.737 244.331 126.785 244.788 127.356C245.244 127.926 250.95 122.734 257.455 115.773C263.959 108.811 268.867 102.763 268.41 102.193C267.954 101.622 262.248 106.814 255.743 113.776Z" fill="white"/>
<path d="M104.308 150.179H60.373V208.379H104.308V150.179Z" fill="#BAC5F4"/>
<path d="M200.168 150.75H156.232V208.95H200.168V150.75Z" fill="#E1E6FB"/>
<path d="M173.35 15.52H144.82V52.0378H173.35V15.52Z" fill="#E1E6FB"/>
<path d="M239.538 45.7613H40.4024V192.403H239.538V45.7613Z" fill="#BAC5F4"/>
<path d="M239.538 45.7613H45.5377V192.403H239.538V45.7613Z" fill="#F8F8FF"/>
<path d="M237.256 48.0437H47.2494V58.3143H237.256V48.0437Z" fill="white"/>
<path d="M237.256 57.7437H47.2494V190.121H237.256V57.7437Z" fill="#E1E6FB"/>
<path d="M102.026 62.879H78.6319V89.1261H102.026V62.879Z" fill="#BAC5F4"/>
<path d="M128.273 62.879H104.879V89.1261H128.273V62.879Z" fill="#BAC5F4"/>
<path d="M153.95 62.879H130.556V89.1261H153.95V62.879Z" fill="#BAC5F4"/>
<path d="M180.197 62.879H156.803V89.1261H180.197V62.879Z" fill="white"/>
<path d="M205.873 62.879H182.479V89.1261H205.873V62.879Z" fill="white"/>
<path d="M232.121 62.879H208.726V89.1261H232.121V62.879Z" fill="white"/>
<path d="M102.026 93.1203H78.6319V119.367H102.026V93.1203Z" fill="white"/>
<path d="M128.273 93.1203H104.879V119.367H128.273V93.1203Z" fill="white"/>
<path d="M153.95 93.1203H130.556V119.367H153.95V93.1203Z" fill="#F8F8FF"/>
<path d="M180.197 93.1203H156.803V119.367H180.197V93.1203Z" fill="white"/>
<path d="M205.873 93.1203H182.479V119.367H205.873V93.1203Z" fill="white"/>
<path d="M232.121 93.1203H208.726V119.367H232.121V93.1203Z" fill="white"/>
<path d="M102.026 122.22H78.6319V148.467H102.026V122.22Z" fill="white"/>
<path d="M128.273 122.22H104.879V148.467H128.273V122.22Z" fill="white"/>
<path d="M153.95 122.22H130.556V148.467H153.95V122.22Z" fill="#F8F8FF"/>
<path d="M180.197 122.22H156.803V148.467H180.197V122.22Z" fill="white"/>
<path d="M205.873 122.22H182.479V148.467H205.873V122.22Z" fill="#F8F8FF"/>
<path d="M232.121 122.22H208.726V148.467H232.121V122.22Z" fill="white"/>
<path d="M102.597 151.891H79.2025V178.138H102.597V151.891Z" fill="#F8F8FF"/>
<path d="M128.844 151.891H105.45V178.138H128.844V151.891Z" fill="#F8F8FF"/>
<path d="M154.52 151.891H131.126V178.138H154.52V151.891Z" fill="white"/>
<path d="M180.767 151.891H157.373V178.138H180.767V151.891Z" fill="white"/>
<path d="M206.444 151.891H183.05V178.138H206.444V151.891Z" fill="#BAC5F4"/>
<path d="M232.691 151.891H209.297V178.138H232.691V151.891Z" fill="white"/>
<path d="M52.6701 55.4613C53.773 55.4613 54.6671 54.5672 54.6671 53.4643C54.6671 52.3613 53.773 51.4672 52.6701 51.4672C51.5671 51.4672 50.673 52.3613 50.673 53.4643C50.673 54.5672 51.5671 55.4613 52.6701 55.4613Z" fill="#BAC5F4"/>
<path d="M58.9465 55.4613C60.0495 55.4613 60.9436 54.5672 60.9436 53.4643C60.9436 52.3613 60.0495 51.4672 58.9465 51.4672C57.8436 51.4672 56.9495 52.3613 56.9495 53.4643C56.9495 54.5672 57.8436 55.4613 58.9465 55.4613Z" fill="#BAC5F4"/>
<path d="M65.223 55.4613C66.326 55.4613 67.2201 54.5672 67.2201 53.4643C67.2201 52.3613 66.326 51.4672 65.223 51.4672C64.1201 51.4672 63.226 52.3613 63.226 53.4643C63.226 54.5672 64.1201 55.4613 65.223 55.4613Z" fill="#BAC5F4"/>
<path d="M55.523 92.5497H71.4995C72.926 92.5497 74.0672 93.6908 74.0672 95.1173C74.0672 96.5438 72.926 97.685 71.4995 97.685H55.523C54.0965 97.685 52.9554 96.5438 52.9554 95.1173C52.9554 93.7479 54.0965 92.5497 55.523 92.5497Z" fill="white"/>
<path d="M55.523 122.22H71.4995C72.926 122.22 74.0672 123.362 74.0672 124.788C74.0672 126.214 72.926 127.356 71.4995 127.356H55.523C54.0965 127.356 52.9554 126.214 52.9554 124.788C52.9554 123.419 54.0965 122.22 55.523 122.22Z" fill="white"/>
<path d="M55.523 151.891H71.4995C72.926 151.891 74.0672 153.032 74.0672 154.459C74.0672 155.885 72.926 157.026 71.4995 157.026H55.523C54.0965 157.026 52.9554 155.885 52.9554 154.459C52.9554 153.089 54.0965 151.891 55.523 151.891Z" fill="white"/>
<path d="M82.9113 94.832H92.0407C93.1249 94.832 94.0378 95.745 94.0378 96.8291C94.0378 97.9132 93.1249 98.8262 92.0407 98.8262H82.9113C81.8272 98.8262 80.9142 97.9132 80.9142 96.8291C80.9142 95.745 81.8272 94.832 82.9113 94.832Z" fill="#BAC5F4"/>
<path d="M82.3407 102.25H86.3348C87.1337 102.25 87.7613 102.877 87.7613 103.676C87.7613 104.475 87.1337 105.103 86.3348 105.103H82.3407C81.5419 105.103 80.9142 104.475 80.9142 103.676C80.9142 102.934 81.5419 102.25 82.3407 102.25Z" fill="#BAC5F4"/>
<path d="M109.444 94.832H118.573C119.543 94.832 120.285 95.5738 120.285 96.5438C120.285 97.5138 119.543 98.2556 118.573 98.2556H109.444C108.474 98.2556 107.732 97.5138 107.732 96.5438C107.732 95.6309 108.474 94.832 109.444 94.832Z" fill="#BAC5F4"/>
<path d="M187.044 155.885H196.173C197.143 155.885 197.885 156.627 197.885 157.597C197.885 158.567 197.143 159.309 196.173 159.309H187.044C186.074 159.309 185.332 158.567 185.332 157.597C185.332 156.684 186.074 155.885 187.044 155.885Z" fill="white"/>
<path d="M212.72 125.073H221.85C222.82 125.073 223.562 125.815 223.562 126.785C223.562 127.755 222.82 128.497 221.85 128.497H212.72C211.75 128.497 211.009 127.755 211.009 126.785C211.009 125.872 211.75 125.073 212.72 125.073Z" fill="#F5F5FC"/>
<path d="M212.15 95.4026H221.279C222.249 95.4026 222.991 96.1444 222.991 97.1144C222.991 98.0844 222.249 98.8262 221.279 98.8262H212.15C211.18 98.8262 210.438 98.0844 210.438 97.1144C210.438 96.2014 211.18 95.4026 212.15 95.4026Z" fill="#F5F5FC"/>
<path d="M186.473 95.4026H195.603C196.573 95.4026 197.315 96.1444 197.315 97.1144C197.315 98.0844 196.573 98.8262 195.603 98.8262H186.473C185.503 98.8262 184.762 98.0844 184.762 97.1144C184.762 96.2014 185.503 95.4026 186.473 95.4026Z" fill="#F5F5FC"/>
<path d="M110.014 105.103C111.275 105.103 112.297 104.081 112.297 102.82C112.297 101.56 111.275 100.538 110.014 100.538C108.754 100.538 107.732 101.56 107.732 102.82C107.732 104.081 108.754 105.103 110.014 105.103Z" fill="#BAC5F4"/>
<path d="M161.938 101.109C163.199 101.109 164.22 100.087 164.22 98.8262C164.22 97.5656 163.199 96.5438 161.938 96.5438C160.677 96.5438 159.656 97.5656 159.656 98.8262C159.656 100.087 160.677 101.109 161.938 101.109Z" fill="#BAC5F4"/>
<path d="M169.926 101.109C171.187 101.109 172.209 100.087 172.209 98.8262C172.209 97.5656 171.187 96.5438 169.926 96.5438C168.666 96.5438 167.644 97.5656 167.644 98.8262C167.644 100.087 168.666 101.109 169.926 101.109Z" fill="#BAC5F4"/>
<path d="M169.926 129.638C171.187 129.638 172.209 128.616 172.209 127.356C172.209 126.095 171.187 125.073 169.926 125.073C168.666 125.073 167.644 126.095 167.644 127.356C167.644 128.616 168.666 129.638 169.926 129.638Z" fill="#BAC5F4"/>
<path d="M161.938 129.638C163.199 129.638 164.22 128.616 164.22 127.356C164.22 126.095 163.199 125.073 161.938 125.073C160.677 125.073 159.656 126.095 159.656 127.356C159.656 128.616 160.677 129.638 161.938 129.638Z" fill="#BAC5F4"/>
<path d="M169.356 158.738C170.616 158.738 171.638 157.716 171.638 156.456C171.638 155.195 170.616 154.173 169.356 154.173C168.095 154.173 167.073 155.195 167.073 156.456C167.073 157.716 168.095 158.738 169.356 158.738Z" fill="#BAC5F4"/>
<path d="M161.367 158.738C162.628 158.738 163.65 157.716 163.65 156.456C163.65 155.195 162.628 154.173 161.367 154.173C160.107 154.173 159.085 155.195 159.085 156.456C159.085 157.716 160.107 158.738 161.367 158.738Z" fill="#BAC5F4"/>
<path d="M91.7555 159.309C93.016 159.309 94.0378 158.287 94.0378 157.026C94.0378 155.766 93.016 154.744 91.7555 154.744C90.4949 154.744 89.4731 155.766 89.4731 157.026C89.4731 158.287 90.4949 159.309 91.7555 159.309Z" fill="#BAC5F4"/>
<path d="M83.7672 159.309C85.0277 159.309 86.0496 158.287 86.0496 157.026C86.0496 155.766 85.0277 154.744 83.7672 154.744C82.5067 154.744 81.4848 155.766 81.4848 157.026C81.4848 158.287 82.5067 159.309 83.7672 159.309Z" fill="#BAC5F4"/>
<path d="M161.938 70.2967C163.199 70.2967 164.22 69.2748 164.22 68.0143C164.22 66.7538 163.199 65.7319 161.938 65.7319C160.677 65.7319 159.656 66.7538 159.656 68.0143C159.656 69.2748 160.677 70.2967 161.938 70.2967Z" fill="#BAC5F4"/>
<path d="M135.12 70.2967C136.381 70.2967 137.403 69.2748 137.403 68.0143C137.403 66.7538 136.381 65.7319 135.12 65.7319C133.86 65.7319 132.838 66.7538 132.838 68.0143C132.838 69.2748 133.86 70.2967 135.12 70.2967Z" fill="white"/>
<path d="M143.109 70.2967C144.369 70.2967 145.391 69.2748 145.391 68.0143C145.391 66.7538 144.369 65.7319 143.109 65.7319C141.848 65.7319 140.826 66.7538 140.826 68.0143C140.826 69.2748 141.848 70.2967 143.109 70.2967Z" fill="white"/>
<path d="M109.444 70.2967C110.704 70.2967 111.726 69.2748 111.726 68.0143C111.726 66.7538 110.704 65.7319 109.444 65.7319C108.183 65.7319 107.161 66.7538 107.161 68.0143C107.161 69.2748 108.183 70.2967 109.444 70.2967Z" fill="white"/>
<path d="M117.432 70.2967C118.693 70.2967 119.714 69.2748 119.714 68.0143C119.714 66.7538 118.693 65.7319 117.432 65.7319C116.171 65.7319 115.15 66.7538 115.15 68.0143C115.15 69.2748 116.171 70.2967 117.432 70.2967Z" fill="white"/>
<path d="M83.7672 70.2967C85.0277 70.2967 86.0496 69.2748 86.0496 68.0143C86.0496 66.7538 85.0277 65.7319 83.7672 65.7319C82.5067 65.7319 81.4848 66.7538 81.4848 68.0143C81.4848 69.2748 82.5067 70.2967 83.7672 70.2967Z" fill="white"/>
<path d="M91.7555 70.2967C93.016 70.2967 94.0378 69.2748 94.0378 68.0143C94.0378 66.7538 93.016 65.7319 91.7555 65.7319C90.4949 65.7319 89.4731 66.7538 89.4731 68.0143C89.4731 69.2748 90.4949 70.2967 91.7555 70.2967Z" fill="white"/>
<path d="M182.526 90.0311H185.288V92.0955H182.526V96.7166H179.983V92.0955H170.919V90.6053L179.833 76.8104H182.526V90.0311ZM173.79 90.0311H179.983V80.2694L179.683 80.8162L173.79 90.0311Z" fill="#BCC6F0"/>
<path d="M134.109 96.7166H121.066V94.8983L127.957 87.242C128.978 86.0845 129.68 85.1457 130.062 84.4256C130.454 83.6964 130.65 82.9445 130.65 82.1697C130.65 81.1307 130.336 80.2785 129.707 79.6131C129.078 78.9477 128.239 78.6151 127.191 78.6151C125.933 78.6151 124.954 78.9751 124.252 79.6951C123.559 80.4061 123.213 81.3996 123.213 82.6756H120.683C120.683 80.8436 121.271 79.3625 122.447 78.2322C123.632 77.102 125.213 76.5369 127.191 76.5369C129.042 76.5369 130.504 77.0246 131.58 77.9998C132.655 78.966 133.193 80.2557 133.193 81.869C133.193 83.8286 131.945 86.1619 129.447 88.869L124.115 94.6522H134.109V96.7166Z" fill="white"/>
<path d="M107.294 107.789L99.0499 126.273H96.3976L104.614 108.445H93.841V106.367H107.294V107.789Z" fill="#BCC6F0"/>
<path d="M175.214 126.307H172.671V109.45L167.572 111.323V109.026L174.818 106.305H175.214V126.307ZM195.107 117.817C195.107 120.779 194.601 122.981 193.589 124.421C192.578 125.861 190.996 126.581 188.845 126.581C186.721 126.581 185.149 125.879 184.128 124.475C183.107 123.063 182.579 120.957 182.542 118.159V114.782C182.542 111.856 183.048 109.682 184.06 108.261C185.072 106.839 186.658 106.128 188.818 106.128C190.96 106.128 192.536 106.816 193.548 108.192C194.56 109.559 195.079 111.674 195.107 114.536V117.817ZM192.578 114.358C192.578 112.216 192.277 110.658 191.675 109.682C191.074 108.698 190.121 108.206 188.818 108.206C187.523 108.206 186.58 108.693 185.988 109.669C185.395 110.644 185.09 112.143 185.072 114.167V118.214C185.072 120.365 185.382 121.955 186.001 122.985C186.63 124.006 187.578 124.516 188.845 124.516C190.094 124.516 191.019 124.033 191.62 123.067C192.231 122.101 192.55 120.579 192.578 118.501V114.358Z" fill="#BCC6F0"/>
<path d="M151.05 155.847H148.507V138.989L143.407 140.862V138.566L150.653 135.845H151.05V155.847ZM159.622 145.866L160.634 135.941H170.833V138.278H162.78L162.179 143.706C163.154 143.132 164.261 142.845 165.501 142.845C167.315 142.845 168.755 143.446 169.821 144.65C170.888 145.844 171.421 147.461 171.421 149.503C171.421 151.554 170.865 153.172 169.753 154.357C168.65 155.532 167.105 156.12 165.118 156.12C163.359 156.12 161.923 155.633 160.811 154.657C159.699 153.682 159.066 152.333 158.911 150.611H161.304C161.459 151.75 161.864 152.611 162.52 153.195C163.177 153.769 164.043 154.056 165.118 154.056C166.294 154.056 167.214 153.655 167.88 152.853C168.554 152.051 168.892 150.943 168.892 149.53C168.892 148.2 168.527 147.133 167.798 146.331C167.078 145.52 166.116 145.114 164.913 145.114C163.81 145.114 162.944 145.356 162.315 145.839L161.645 146.386L159.622 145.866Z" fill="#BCC6F0"/>
<path d="M228.079 156.988H225.536V140.131L220.437 142.004V139.707L227.683 136.986H228.079V156.988ZM247.562 142.277C247.562 143.271 247.297 144.155 246.769 144.929C246.249 145.704 245.543 146.31 244.65 146.748C245.689 147.194 246.509 147.846 247.111 148.703C247.721 149.56 248.027 150.53 248.027 151.615C248.027 153.338 247.443 154.709 246.277 155.73C245.119 156.751 243.592 157.261 241.697 157.261C239.783 157.261 238.247 156.751 237.089 155.73C235.941 154.7 235.366 153.329 235.366 151.615C235.366 150.539 235.658 149.569 236.241 148.703C236.834 147.837 237.65 147.181 238.689 146.734C237.805 146.297 237.107 145.69 236.597 144.916C236.087 144.141 235.831 143.261 235.831 142.277C235.831 140.6 236.369 139.269 237.445 138.285C238.52 137.301 239.937 136.808 241.697 136.808C243.447 136.808 244.859 137.301 245.935 138.285C247.019 139.269 247.562 140.6 247.562 142.277ZM245.497 151.56C245.497 150.448 245.142 149.541 244.431 148.84C243.729 148.138 242.809 147.787 241.669 147.787C240.53 147.787 239.614 148.133 238.921 148.826C238.238 149.519 237.896 150.43 237.896 151.56C237.896 152.69 238.228 153.579 238.894 154.226C239.568 154.873 240.503 155.197 241.697 155.197C242.881 155.197 243.811 154.873 244.486 154.226C245.16 153.57 245.497 152.681 245.497 151.56ZM241.697 138.886C240.703 138.886 239.896 139.196 239.277 139.816C238.666 140.427 238.361 141.261 238.361 142.318C238.361 143.33 238.661 144.15 239.263 144.779C239.874 145.399 240.685 145.709 241.697 145.709C242.708 145.709 243.515 145.399 244.116 144.779C244.727 144.15 245.033 143.33 245.033 142.318C245.033 141.306 244.718 140.482 244.089 139.843C243.46 139.205 242.663 138.886 241.697 138.886Z" fill="#BCC6F0"/>
<path d="M125.967 184.028H112.924V182.21L119.815 174.554C120.835 173.396 121.537 172.457 121.92 171.737C122.312 171.008 122.508 170.256 122.508 169.481C122.508 168.442 122.193 167.59 121.565 166.925C120.936 166.259 120.097 165.927 119.049 165.927C117.791 165.927 116.811 166.287 116.109 167.007C115.417 167.718 115.07 168.711 115.07 169.987H112.541C112.541 168.155 113.129 166.674 114.305 165.544C115.49 164.414 117.071 163.849 119.049 163.849C120.899 163.849 122.362 164.336 123.438 165.311C124.513 166.278 125.051 167.567 125.051 169.181C125.051 171.14 123.802 173.474 121.305 176.181L115.973 181.964H125.967V184.028Z" fill="#BCC6F0"/>
<path d="M132.099 175.538C132.099 178.5 131.594 180.701 130.582 182.142C129.57 183.582 127.989 184.302 125.838 184.302C123.714 184.302 122.142 183.6 121.121 182.196C120.1 180.783 119.571 178.678 119.535 175.88V172.503C119.535 169.577 120.041 167.403 121.052 165.981C122.064 164.56 123.65 163.849 125.81 163.849C127.952 163.849 129.529 164.537 130.541 165.913C131.552 167.28 132.072 169.395 132.099 172.257V175.538ZM129.57 172.079C129.57 169.937 129.269 168.379 128.668 167.403C128.066 166.419 127.114 165.927 125.81 165.927C124.516 165.927 123.573 166.414 122.98 167.39C122.388 168.365 122.082 169.864 122.064 171.888V175.935C122.064 178.086 122.374 179.676 122.994 180.706C123.623 181.727 124.571 182.237 125.838 182.237C127.086 182.237 128.011 181.754 128.613 180.788C129.224 179.822 129.543 178.3 129.57 176.222V172.079Z" fill="#BCC6F0"/>
<path d="M217.571 56.4313L174.206 62.8219C172.551 63.0502 171.353 64.7049 171.581 66.5308L177.972 117.313C178.2 119.139 179.74 120.394 181.395 120.109L224.76 113.719C226.415 113.49 227.613 111.836 227.385 110.01L220.994 59.2272C220.766 57.4584 219.225 56.2031 217.571 56.4313Z" fill="#BCC6F0"/>
<path d="M238.169 195.085C239.481 195.37 243.932 193.829 244.674 193.088C244.902 192.859 245.13 192.118 245.301 191.832C245.472 190.862 245.929 191.376 246.328 191.262C247.641 190.976 251.121 190.006 252.719 190.919C253.004 191.661 253.061 192.346 253.232 192.802C253.689 194.685 253.917 196.568 254.088 198.451C254.202 199.649 253.461 200.676 252.376 200.791C252.034 200.791 251.635 200.791 251.292 200.733C248.496 199.992 242.905 199.821 240.736 198.851C237.085 197.881 235.031 195.826 238.169 195.085Z" fill="#4B44BE"/>
<path d="M194.975 197.31C196.23 197.652 200.852 196.454 201.594 195.769C201.879 195.541 202.108 194.856 202.336 194.571C202.564 193.658 202.963 194.115 203.42 194.058C204.732 193.829 208.27 193.088 209.868 194.115C210.153 194.856 210.096 195.598 210.267 195.998C210.552 197.881 210.78 199.821 210.838 201.703C210.895 202.902 210.039 203.872 208.955 203.929C208.612 203.929 208.213 203.929 207.87 203.815C205.132 202.902 199.54 202.331 197.429 201.247C193.777 200.049 191.837 197.823 194.975 197.31Z" fill="#4B44BE"/>
<path d="M252.947 191.033C250.779 191.376 245.472 191.433 245.472 191.433C245.472 191.433 245.13 188.637 243.532 183.273C241.878 177.853 233.661 160.792 233.661 160.792C231.949 157.996 230.181 152.233 230.181 152.233L227.727 130.152C227.727 130.152 214.661 152.176 214.889 157.197C215.06 162.219 211.865 181.733 211.865 181.733C211.522 184.643 209.925 194.343 209.925 194.343C207.528 194.001 205.075 193.943 202.621 194.115C202.963 190.121 204.276 173.63 204.276 173.63C204.276 173.63 205.132 160.849 205.303 153.089C205.474 145.329 210.609 128.896 214.033 121.422C214.489 120.166 214.889 118.854 215.174 117.542L245.644 121.707C244.959 123.818 244.388 125.929 243.989 128.097C242.22 137.855 240.965 154.23 240.965 154.23C245.758 160.05 248.725 171.063 248.725 171.063C250.608 177.682 252.947 191.033 252.947 191.033Z" fill="url(#paint0_linear)"/>
<path d="M219.054 55.8607C223.733 54.8907 228.583 56.7166 228.583 56.7166L229.382 57.0019L234.403 63.9631L229.781 62.6508C228.526 62.1943 226.129 61.4525 224.988 61.5666C224.132 61.5096 222.192 61.9661 221.279 61.1102C220.595 60.7678 220.423 60.1402 218.997 58.5996C217.97 57.3443 218.255 57.0019 217.856 56.8307C217.285 56.5455 217.742 55.9749 219.054 55.8607Z" fill="url(#paint1_linear)"/>
<path d="M202.45 117.427C202.507 117.142 203.42 117.313 203.534 117.085C204.504 115.602 205.702 113.662 208.156 112.749C208.84 112.52 209.582 112.349 210.324 112.235L211.979 115.373C211.751 115.944 211.522 116.457 211.18 116.914C210.153 118.397 208.042 120.394 204.162 119.824C203.306 119.767 202.336 118.454 202.45 117.427Z" fill="url(#paint2_linear)"/>
<path d="M237.142 47.6443C237.712 47.6443 249.409 57.4013 249.524 58.4855C249.524 59.056 249.581 61.5666 249.98 63.1643C250.379 64.7049 251.521 66.8731 251.521 66.8731C251.521 66.8731 250.494 68.9273 247.869 69.3267C245.358 69.7261 241.992 68.8131 241.992 68.8131C241.992 68.8131 242.791 63.3925 241.821 62.8219C240.965 62.3084 240.736 62.8219 237.883 60.2543C235.031 57.6866 235.943 51.0107 236.001 50.6113C236.001 50.1548 236.571 47.6443 237.142 47.6443Z" fill="url(#paint3_linear)"/>
<path d="M223.79 93.3485C227.613 89.5826 230.009 77.9426 231.208 75.0326C232.406 72.1226 234.346 71.2667 235.145 70.9814C235.544 70.8102 237.598 70.1825 239.196 69.7261L227.841 62.0231C226.301 58.8849 229.325 57.0019 229.325 57.0019L242.22 63.9631V68.699L246.385 67.9572L251.407 66.8731C252.947 66.4737 254.488 66.2455 256.085 66.0743C256.713 66.0172 257.398 66.0743 258.025 66.3596L258.368 66.4737C259.167 66.759 259.794 67.3867 260.194 68.1855C260.992 70.0684 261.563 72.1226 261.791 74.2337C262.248 77.6002 259.851 85.1891 257.455 90.7238C256.371 93.0632 252.262 105.16 251.235 108.184C246.214 120.851 245.815 121.821 245.815 121.821C230.352 121.65 215.231 117.941 215.231 117.941C214.546 116.572 217.057 112.52 217.057 112.52L212.378 116.743C210.324 117.427 208.669 112.52 208.669 112.52C208.669 112.52 220.538 96.4867 223.79 93.3485Z" fill="url(#paint4_linear)"/>
<path d="M251.692 48.2148C251.464 47.7013 250.893 46.6172 250.551 46.2178C249.98 45.5901 249.409 44.9625 248.782 44.3919C248.211 43.9925 246.785 43.1936 246.214 42.9084C244.274 42.2807 241.649 42.9084 239.709 43.0225C237.941 42.9084 236.685 45.2478 236.001 46.7884C235.316 48.329 236.628 48.1578 236.514 49.356C236.514 49.5843 237.085 49.9266 237.598 50.2119C238.112 50.4972 239.538 53.0078 240.052 54.149C240.565 51.296 242.334 56.3743 241.992 57.0019C242.676 57.5155 243.532 59.5696 244.845 60.1972C245.701 59.7978 247.355 58.2002 249.581 58.6566C249.752 58.2002 251.92 56.4884 252.148 53.5213C252.205 52.6654 252.376 49.5272 251.692 48.2148Z" fill="url(#paint5_linear)"/>
<path opacity="0.07" d="M245.016 61.1102C245.016 61.1102 243.076 62.9931 241.878 62.9931L242.163 64.5908L242.106 66.9302C242.106 66.9302 242.848 65.6178 243.818 64.3055C244.388 63.3355 244.845 62.2514 245.016 61.1102Z" fill="black"/>
<path opacity="0.07" d="M237.884 84.5614C237.884 84.5614 235.43 92.6067 227.784 100.994C220.138 109.382 218.312 111.094 218.312 111.094C218.312 111.094 216.772 113.205 217.228 114.632C217.742 116.058 221.051 111.322 228.526 107.613C232.805 105.502 234.232 101.907 236.229 96.8291C238.682 90.4385 239.253 89.0691 239.595 86.7297C240.451 80.7385 237.884 84.5614 237.884 84.5614Z" fill="black"/>
<path opacity="0.07" d="M227.727 130.209C227.727 130.209 231.322 138.653 232.349 142.762C233.433 147.041 233.433 153.203 236.571 156.227C240.166 159.651 244.388 171.12 245.415 173.516C246.785 176.997 249.638 196.112 248.839 197.424C248.04 198.736 244.788 196.796 244.788 196.796C244.788 196.796 245.986 191.946 244.959 187.553C243.932 183.159 239.196 171.405 236.229 165.585C233.547 160.393 230.808 154.345 230.181 150.864C229.553 147.326 227.727 130.209 227.727 130.209Z" fill="black"/>
</g>
<defs>
<linearGradient id="paint0_linear" x1="252.921" y1="155.965" x2="202.523" y2="155.965" gradientUnits="userSpaceOnUse">
<stop stop-color="#4B45BD"/>
<stop offset="1" stop-color="#4B45BD"/>
</linearGradient>
<linearGradient id="paint1_linear" x1="234.336" y1="59.7509" x2="217.574" y2="59.7509" gradientUnits="userSpaceOnUse">
<stop stop-color="#F87B58"/>
<stop offset="0.41" stop-color="#F89453"/>
<stop offset="0.94" stop-color="#F8C548"/>
</linearGradient>
<linearGradient id="paint2_linear" x1="212.013" y1="116.121" x2="202.429" y2="116.121" gradientUnits="userSpaceOnUse">
<stop stop-color="#F87B58"/>
<stop offset="0.41" stop-color="#F89453"/>
<stop offset="0.94" stop-color="#F8C548"/>
</linearGradient>
<linearGradient id="paint3_linear" x1="251.464" y1="58.5595" x2="235.699" y2="58.5595" gradientUnits="userSpaceOnUse">
<stop stop-color="#F87B58"/>
<stop offset="0.41" stop-color="#F89453"/>
<stop offset="0.94" stop-color="#F8C548"/>
</linearGradient>
<linearGradient id="paint4_linear" x1="261.817" y1="89.3681" x2="208.608" y2="89.3681" gradientUnits="userSpaceOnUse">
<stop stop-color="#E5A4ED"/>
<stop offset="1" stop-color="#7A5BF5"/>
</linearGradient>
<linearGradient id="paint5_linear" x1="253.424" y1="55.095" x2="238.158" y2="48.4711" gradientUnits="userSpaceOnUse">
<stop stop-color="#4B45BD"/>
<stop offset="1" stop-color="#58CAEA"/>
</linearGradient>
<clipPath id="clip0">
<rect width="278.4" height="208.95" fill="white"/>
</clipPath>
</defs>
</svg>
